<?xml version="1.0" encoding="UTF-8"?>
<svg width="1200pt" height="1200pt" version="1.1" viewBox="0 0 1200 1200" xmlns="http://www.w3.org/2000/svg">
 <path d="m994.05 641.91v480.08c0 9.9336-8.0664 18-18 18h-244.79c-9.9336 0-18-8.0664-18-18v-333.21c0-8.25-3.375-15.773-8.7891-21.203-5.4297-5.4141-12.941-8.7891-21.203-8.7891h-166.52c-8.2617 0-15.773 3.375-21.203 8.7891-5.4141 5.4297-8.7891 12.953-8.7891 21.203v333.21c0 9.9336-8.0664 18-18 18h-244.79c-9.9336 0-18-8.0664-18-18v-480.08h-102.8c-9.9336 0-18-8.0664-18-18 0-5.0156 2.0547-9.5547 5.3711-12.812l496.18-545.21c6.6758-7.3398 18.043-7.8789 25.383-1.2031l498.05 547.13c6.6758 7.3398 6.1367 18.707-1.2031 25.383-3.4453 3.1328-7.7656 4.6758-12.09 4.6758l-102.81 0.027344z"/>
</svg>
